<?xml version="1.0" encoding="UTF-8" standalone="no"?>
<!-- Created with Inkscape (http://www.inkscape.org/) -->

<svg
   xmlns:dc="http://purl.org/dc/elements/1.1/"
   xmlns:cc="http://creativecommons.org/ns#"
   xmlns:rdf="http://www.w3.org/1999/02/22-rdf-syntax-ns#"
   xmlns:svg="http://www.w3.org/2000/svg"
   xmlns="http://www.w3.org/2000/svg"
   xmlns:sodipodi="http://sodipodi.sourceforge.net/DTD/sodipodi-0.dtd"
   xmlns:inkscape="http://www.inkscape.org/namespaces/inkscape"
   width="500"
   height="150"
   viewBox="0 0 132.29166 39.687501"
   version="1.1"
   id="svg8"
   sodipodi:docname="logo-flattened.svg"
   inkscape:version="0.92.4 (5da689c313, 2019-01-14)">
  <defs
     id="defs2" />
  <sodipodi:namedview
     id="base"
     pagecolor="#ffffff"
     bordercolor="#666666"
     borderopacity="1.0"
     inkscape:pageopacity="0.0"
     inkscape:pageshadow="2"
     inkscape:zoom="2.8"
     inkscape:cx="168.64236"
     inkscape:cy="72.057506"
     inkscape:document-units="mm"
     inkscape:current-layer="g5130"
     showgrid="false"
     units="px"
     inkscape:window-width="1920"
     inkscape:window-height="1017"
     inkscape:window-x="-8"
     inkscape:window-y="-8"
     inkscape:window-maximized="1" />
  <metadata
     id="metadata5">
    <rdf:RDF>
      <cc:Work
         rdf:about="">
        <dc:format>image/svg+xml</dc:format>
        <dc:type
           rdf:resource="http://purl.org/dc/dcmitype/StillImage" />
        <dc:title></dc:title>
      </cc:Work>
    </rdf:RDF>
  </metadata>
  <g
     inkscape:label="Layer 1"
     inkscape:groupmode="layer"
     id="layer1"
     transform="translate(0,-257.31248)">
    <g
       id="g5130"
       transform="matrix(2.3237146,0,0,2.3237146,-43.182916,-346.93078)">
      <g
         id="g5183">
        <g
           id="text12"
           style="font-style:normal;font-variant:normal;font-weight:normal;font-stretch:normal;font-size:10.58333302px;line-height:1.25;font-family:Comfortaa;-inkscape-font-specification:Comfortaa;letter-spacing:0px;word-spacing:0px;fill:#000000;fill-opacity:1;stroke:none;stroke-width:0.26458332"
           aria-label="determind">
          <path
             id="path5132"
             style="font-style:normal;font-variant:normal;font-weight:300;font-stretch:normal;font-family:Comfortaa;-inkscape-font-specification:'Comfortaa Light';fill:#000000;fill-opacity:0.49019608"
             d="m 22.308155,274.00692 q -0.846667,0 -1.524,-0.381 -0.66675,-0.39158 -1.058333,-1.05833 -0.381,-0.67734 -0.381,-1.524 0,-0.84667 0.381,-1.51342 0.391583,-0.66675 1.058333,-1.04775 0.677333,-0.39158 1.524,-0.39158 0.762,0 1.36525,0.32808 0.613833,0.32808 0.9525,0.87842 v -3.302 q 0,-0.14817 0.08467,-0.23284 0.09525,-0.0847 0.232833,-0.0847 0.148167,0 0.232833,0.0847 0.08467,0.0847 0.08467,0.23284 v 5.11175 q -0.01058,0.8255 -0.402167,1.48166 -0.391583,0.65617 -1.058333,1.03717 -0.656167,0.381 -1.49225,0.381 z m 0,-0.59267 q 0.66675,0 1.185333,-0.30691 0.529167,-0.3175 0.8255,-0.84667 0.306917,-0.53975 0.306917,-1.21708 0,-0.67734 -0.306917,-1.2065 -0.296333,-0.52917 -0.8255,-0.83609 -0.518583,-0.3175 -1.185333,-0.3175 -0.656167,0 -1.185333,0.3175 -0.529167,0.30692 -0.836084,0.83609 -0.306916,0.52916 -0.306916,1.2065 0,0.67733 0.306916,1.21708 0.306917,0.52917 0.836084,0.84667 0.529166,0.30691 1.185333,0.30691 z" />
          <path
             id="path5134"
             style="font-style:normal;font-variant:normal;font-weight:300;font-stretch:normal;font-family:Comfortaa;-inkscape-font-specification:'Comfortaa Light';fill:#000000;fill-opacity:0.49019608"
             d="m 29.726906,273.99634 q -0.836083,0 -1.49225,-0.37042 -0.645583,-0.381 -1.016,-1.04775 -0.370416,-0.66675 -0.370416,-1.524 0,-0.86783 0.34925,-1.524 0.34925,-0.66675 0.963083,-1.04775 0.613833,-0.381 1.407583,-0.381 0.783167,0 1.386417,0.37042 0.60325,0.35983 0.941916,1.00541 0.338667,0.635 0.338667,1.47109 0,0.13758 -0.08467,0.22225 -0.08467,0.0741 -0.22225,0.0741 h -4.656666 v -0.55033 h 4.826 l -0.465667,0.34925 q 0.02117,-0.68792 -0.232833,-1.21709 -0.254,-0.52916 -0.73025,-0.8255 -0.465667,-0.30691 -1.100667,-0.30691 -0.60325,0 -1.0795,0.30691 -0.465666,0.29634 -0.740833,0.8255 -0.264583,0.52917 -0.264583,1.22767 0,0.68792 0.28575,1.21708 0.28575,0.52917 0.79375,0.83609 0.508,0.29633 1.164166,0.29633 0.41275,0 0.8255,-0.13758 0.423334,-0.14817 0.66675,-0.381 0.08467,-0.0847 0.201084,-0.0847 0.127,-0.0106 0.211666,0.0635 0.116417,0.0952 0.116417,0.21167 0.01058,0.11641 -0.09525,0.21166 -0.338667,0.30692 -0.889,0.508 -0.53975,0.20109 -1.037167,0.20109 z" />
          <path
             id="path5136"
             style="font-style:normal;font-variant:normal;font-weight:300;font-stretch:normal;font-family:Comfortaa;-inkscape-font-specification:'Comfortaa Light';fill:#000000;fill-opacity:0.49019608"
             d="m 35.985625,273.94342 q -0.582083,-0.0106 -1.037167,-0.26458 -0.455083,-0.26459 -0.709083,-0.71967 -0.254,-0.46567 -0.254,-1.04775 v -5.2705 q 0,-0.14817 0.08467,-0.23283 0.09525,-0.0953 0.232833,-0.0953 0.148167,0 0.232833,0.0953 0.09525,0.0847 0.09525,0.23283 v 5.2705 q 0,0.61383 0.381,1.00542 0.381,0.381 0.98425,0.381 h 0.232834 q 0.148166,0 0.232833,0.0952 0.09525,0.0847 0.09525,0.23283 0,0.13758 -0.09525,0.23283 -0.08467,0.0847 -0.232833,0.0847 z m -2.82575,-5.00592 q -0.127,0 -0.211667,-0.0741 -0.07408,-0.0847 -0.07408,-0.21167 0,-0.127 0.07408,-0.20108 0.08467,-0.0847 0.211667,-0.0847 h 2.868083 q 0.127,0 0.201084,0.0847 0.08467,0.0741 0.08467,0.20108 0,0.127 -0.08467,0.21167 -0.07408,0.0741 -0.201084,0.0741 z" />
          <path
             id="path5138"
             style="font-style:normal;font-variant:normal;font-weight:300;font-stretch:normal;font-family:Comfortaa;-inkscape-font-specification:'Comfortaa Light';fill:#000000;fill-opacity:0.49019608"
             d="m 40.434262,273.99634 q -0.836084,0 -1.49225,-0.37042 -0.645584,-0.381 -1.016,-1.04775 -0.370417,-0.66675 -0.370417,-1.524 0,-0.86783 0.34925,-1.524 0.34925,-0.66675 0.963083,-1.04775 0.613834,-0.381 1.407584,-0.381 0.783166,0 1.386416,0.37042 0.60325,0.35983 0.941917,1.00541 0.338667,0.635 0.338667,1.47109 0,0.13758 -0.08467,0.22225 -0.08467,0.0741 -0.22225,0.0741 h -4.656667 v -0.55033 h 4.826 l -0.465666,0.34925 q 0.02117,-0.68792 -0.232834,-1.21709 -0.254,-0.52916 -0.73025,-0.8255 -0.465666,-0.30691 -1.100666,-0.30691 -0.60325,0 -1.0795,0.30691 -0.465667,0.29634 -0.740834,0.8255 -0.264583,0.52917 -0.264583,1.22767 0,0.68792 0.28575,1.21708 0.28575,0.52917 0.79375,0.83609 0.508,0.29633 1.164167,0.29633 0.41275,0 0.8255,-0.13758 0.423333,-0.14817 0.66675,-0.381 0.08467,-0.0847 0.201083,-0.0847 0.127,-0.0106 0.211667,0.0635 0.116416,0.0952 0.116416,0.21167 0.01058,0.11641 -0.09525,0.21166 -0.338666,0.30692 -0.889,0.508 -0.53975,0.20109 -1.037166,0.20109 z" />
          <path
             id="path5140"
             style="font-style:normal;font-variant:normal;font-weight:300;font-stretch:normal;font-family:Comfortaa;-inkscape-font-specification:'Comfortaa Light';fill:#000000;fill-opacity:0.49019608"
             d="m 44.533981,270.40859 q 0.0635,-0.67734 0.370416,-1.19592 0.306917,-0.52917 0.79375,-0.8255 0.486834,-0.29633 1.0795,-0.29633 0.402167,0 0.624417,0.0952 0.22225,0.0953 0.169333,0.33866 -0.03175,0.15875 -0.148167,0.1905 -0.116416,0.0317 -0.28575,0.0106 -0.15875,-0.0317 -0.359833,-0.0317 -0.529167,0 -0.941916,0.22225 -0.41275,0.22225 -0.645584,0.61383 -0.232833,0.381 -0.232833,0.87842 z m 0.105833,3.53483 q -0.137583,0 -0.232833,-0.0847 -0.08467,-0.0952 -0.08467,-0.23283 v -5.15408 q 0,-0.14817 0.08467,-0.23284 0.09525,-0.0847 0.232833,-0.0847 0.148167,0 0.232833,0.0847 0.08467,0.0847 0.08467,0.23284 v 5.15408 q 0,0.13758 -0.08467,0.23283 -0.08467,0.0847 -0.232833,0.0847 z" />
          <path
             id="path5142"
             style="font-style:normal;font-variant:normal;font-weight:bold;font-stretch:normal;font-family:Comfortaa;-inkscape-font-specification:'Comfortaa Bold'"
             d="m 56.551356,273.954 q -0.232833,0 -0.391583,-0.14816 -0.148167,-0.15875 -0.148167,-0.39159 v -3.02683 q 0,-0.66675 -0.328083,-0.98425 -0.328084,-0.32808 -0.85725,-0.32808 -0.550334,0 -0.910167,0.381 -0.34925,0.381 -0.34925,0.97366 h -0.878417 q 0,-0.68791 0.296334,-1.2065 0.296333,-0.52916 0.8255,-0.8255 0.53975,-0.29633 1.227666,-0.29633 0.60325,0 1.068917,0.26458 0.465667,0.26459 0.719667,0.78317 0.264583,0.508 0.264583,1.23825 v 3.02683 q 0,0.23284 -0.148167,0.39159 -0.148166,0.14816 -0.391583,0.14816 z m -7.059083,0 q -0.232833,0 -0.391583,-0.14816 -0.148167,-0.15875 -0.148167,-0.39159 v -4.70958 q 0,-0.24342 0.148167,-0.39158 0.15875,-0.14817 0.391583,-0.14817 0.243417,0 0.391583,0.14817 0.148167,0.14816 0.148167,0.39158 v 4.70958 q 0,0.23284 -0.148167,0.39159 -0.148166,0.14816 -0.391583,0.14816 z m 3.534833,0 q -0.232833,0 -0.391583,-0.14816 -0.148167,-0.15875 -0.148167,-0.39159 v -3.02683 q 0,-0.66675 -0.328083,-0.98425 -0.328084,-0.32808 -0.85725,-0.32808 -0.550334,0 -0.910167,0.381 -0.359833,0.381 -0.359833,0.97366 h -0.66675 q 0,-0.68791 0.275167,-1.2065 0.275166,-0.52916 0.761999,-0.8255 0.486834,-0.29633 1.11125,-0.29633 0.60325,0 1.068917,0.26458 0.465667,0.26459 0.719667,0.78317 0.264583,0.508 0.264583,1.23825 v 3.02683 q 0,0.23284 -0.148167,0.39159 -0.148166,0.14816 -0.391583,0.14816 z" />
          <path
             id="path5146"
             style="font-style:normal;font-variant:normal;font-weight:bold;font-stretch:normal;font-family:Comfortaa;-inkscape-font-specification:'Comfortaa Bold'"
             d="m 66.967837,273.954 q -0.232833,0 -0.391583,-0.14816 -0.148167,-0.15875 -0.148167,-0.39159 v -2.6035 q 0,-0.60325 -0.22225,-0.98425 -0.22225,-0.381 -0.60325,-0.56091 -0.370416,-0.1905 -0.85725,-0.1905 -0.4445,0 -0.804333,0.17991 -0.359833,0.17992 -0.5715,0.48684 -0.211667,0.29633 -0.211667,0.68791 h -0.66675 q 0,-0.66675 0.3175,-1.18533 0.328084,-0.52917 0.889,-0.83608 0.560917,-0.30692 1.259417,-0.30692 0.73025,0 1.30175,0.3175 0.582083,0.30692 0.910166,0.91017 0.338667,0.60325 0.338667,1.48166 v 2.6035 q 0,0.23284 -0.15875,0.39159 -0.148167,0.14816 -0.381,0.14816 z m -4.34975,0 q -0.232833,0 -0.391583,-0.14816 -0.148167,-0.15875 -0.148167,-0.39159 v -4.72016 q 0,-0.24342 0.148167,-0.39159 0.15875,-0.14816 0.391583,-0.14816 0.243417,0 0.391584,0.14816 0.148166,0.14817 0.148166,0.39159 v 4.72016 q 0,0.23284 -0.148166,0.39159 -0.148167,0.14816 -0.391584,0.14816 z" />
          <path
             id="path5148"
             style="font-style:normal;font-variant:normal;font-weight:bold;font-stretch:normal;font-family:Comfortaa;-inkscape-font-specification:'Comfortaa Bold'"
             d="m 71.917031,273.98575 q -0.8255,0 -1.49225,-0.381 -0.656166,-0.39158 -1.04775,-1.05833 -0.381,-0.66675 -0.381,-1.50283 0,-0.83609 0.34925,-1.49225 0.359834,-0.66675 0.973667,-1.04775 0.613833,-0.39159 1.386417,-0.39159 0.624416,0 1.153583,0.26459 0.529167,0.254 0.889,0.6985 v -2.8575 q 0,-0.24342 0.148167,-0.39159 0.15875,-0.14816 0.391583,-0.14816 0.243417,0 0.391583,0.14816 0.148167,0.14817 0.148167,0.39159 v 4.826 q 0,0.83608 -0.391583,1.50283 -0.381,0.66675 -1.037167,1.05833 -0.656167,0.381 -1.481667,0.381 z m 0,-0.9525 q 0.53975,0 0.963084,-0.254 0.423333,-0.26458 0.66675,-0.71966 0.243416,-0.45509 0.243416,-1.016 0,-0.5715 -0.243416,-1.016 -0.243417,-0.4445 -0.66675,-0.6985 -0.423334,-0.26459 -0.963084,-0.26459 -0.529166,0 -0.963083,0.26459 -0.423333,0.254 -0.677333,0.6985 -0.243417,0.4445 -0.243417,1.016 0,0.56091 0.243417,1.016 0.254,0.45508 0.677333,0.71966 0.433917,0.254 0.963083,0.254 z" />
          <path
             id="path5144"
             style="font-style:normal;font-variant:normal;font-weight:bold;font-stretch:normal;font-family:Comfortaa;-inkscape-font-specification:'Comfortaa Bold'"
             d="m 59.519979,273.94342 c -0.155222,0 -0.28575,-0.0494 -0.391583,-0.14817 -0.09878,-0.10583 -0.148167,-0.23636 -0.148167,-0.39158 v -4.70958 c 0,-0.16228 0.04939,-0.29281 0.148167,-0.39159 0.105833,-0.0988 0.236361,-0.14816 0.391583,-0.14816 0.162278,0 0.292806,0.0494 0.391584,0.14816 0.09878,0.0988 0.148166,0.22931 0.148166,0.39159 v 4.70958 c 0,0.15522 -0.04939,0.28575 -0.148166,0.39158 -0.09878,0.0988 -0.229306,0.14817 -0.391584,0.14817 z"
             inkscape:connector-curvature="0"
             sodipodi:nodetypes="scsscscsscs" />
        </g>
        <g
           id="g4657"
           style="fill:#ff8bbe;fill-opacity:0.75376886;stroke:#00000e;stroke-width:0.30000001;stroke-miterlimit:4;stroke-dasharray:none;stroke-opacity:1">
          <g
             id="g4708"
             style="fill:#ff8bbe;fill-opacity:1">
            <g
               id="g5102"
               transform="matrix(0.93171473,0,0,0.93171473,-0.30049066,20.626288)">
              <path
                 transform="matrix(0.26458333,0,0,0.26458333,0,257.31248)"
                 inkscape:connector-curvature="0"
                 id="path4747"
                 d="m 248.88206,23.402066 c -0.49625,0.09896 -0.99718,0.133943 -1.48803,0.252685 -0.32404,0.164926 -0.33039,0.597255 -0.50062,0.884572 -0.0903,0.233283 -0.34992,0.619231 -0.008,0.774464 0.30208,0.08316 0.51438,-0.24858 0.76053,-0.372794 0.49628,-0.380054 1.04462,-0.708933 1.4987,-1.135223 0.11239,-0.176485 -0.0492,-0.437331 -0.26214,-0.403704 z"
                 style="fill:#954e6d;fill-opacity:1;stroke:#00000e;stroke-width:0.05061867;stroke-miterlimit:4;stroke-dasharray:none;stroke-opacity:0.09547741" />
              <path
                 sodipodi:nodetypes="cccc"
                 inkscape:connector-curvature="0"
                 id="path935"
                 d="m 64.881974,264.29323 c 0.388058,-0.0819 0.644505,0.0856 0.812658,0.39686 0.219229,0.34433 0.808998,0.0794 0.976839,-0.16843 0.195215,-0.39717 -0.336646,-1.27964 -0.336646,-1.27964"
                 style="fill:#954e6d;fill-opacity:1;stroke:#00000e;stroke-width:0.30000001;stroke-linecap:round;stroke-linejoin:miter;stroke-miterlimit:4;stroke-dasharray:none;stroke-opacity:1" />
              <path
                 transform="matrix(0.26458333,0,0,0.26458333,0,257.31248)"
                 inkscape:connector-curvature="0"
                 id="path4745"
                 d="m 241.51207,8.7715026 c -1.30105,0.6899052 -2.63186,1.3309444 -3.91053,2.0590644 -0.0928,0.09107 -0.13169,0.225718 -0.16235,0.344151 -0.21275,-0.03291 -0.41143,-0.07751 -0.62849,-0.120501 0.0338,-0.282385 0.26437,-0.628635 0.0231,-0.872192 -0.32046,-0.150095 -0.55839,0.218691 -0.81839,0.3464 -0.73483,0.528399 -1.48629,1.044037 -2.19905,1.596441 -0.17932,0.26826 0.002,0.623109 -0.01,0.927509 0.03,0.158179 0.0503,0.308464 -0.15529,0.296328 -0.35355,0.114807 -0.44126,0.547405 -0.66468,0.808193 -0.81615,1.300636 -1.66188,2.585659 -2.44419,3.905814 -0.0236,0.3717 0.33361,0.63559 0.5087,0.932648 0.0751,0.107792 -0.0645,0.267146 10e-4,0.40594 0.36949,1.613557 0.84367,3.201925 1.2568,4.804949 0.0958,0.272959 0.41862,0.166924 0.62386,0.208915 0.31524,0.284721 0.78183,0.308745 1.16769,0.456509 1.82882,0.513924 3.65602,1.051048 5.49229,1.52789 0.30786,0.0313 0.36599,-0.394667 0.13138,-0.537305 -0.33902,-0.320965 -0.65542,-0.665667 -0.97549,-1.002584 -0.38599,-0.225849 -0.82213,-0.364942 -1.20327,-0.606428 -0.49067,-0.340895 -1.04972,-0.549547 -1.60544,-0.756366 -1.16409,-0.463706 -2.31982,-1.219984 -2.81215,-2.422902 -0.4845,-1.148113 -0.23709,-2.46833 0.32152,-3.542882 0.18982,0.10291 0.37591,0.212892 0.55691,0.330636 -0.2043,0.345503 0.19185,0.651684 0.30509,0.962374 0.46909,0.824736 0.90779,1.673492 1.3957,2.483343 0.21905,0.256426 0.50287,-0.04333 0.55268,-0.285779 0.094,-0.291197 0.35744,-0.51696 0.38961,-0.818717 -0.21128,-0.777678 -0.23917,-1.596436 -0.15267,-2.393798 0.196,-0.999285 0.89692,-1.885929 1.83048,-2.314538 0.65023,-0.314014 1.36671,-0.467682 2.08204,-0.536938 -0.0654,0.199781 0.14374,0.671174 -0.13392,0.660967 -0.35728,0.06141 -0.4479,0.500117 -0.67488,0.738603 -0.62278,0.924599 -1.2943,1.823567 -1.881,2.768487 -0.0793,0.260754 0.17643,0.461326 0.30211,0.661917 -0.27616,0.260882 -0.006,0.662028 -0.003,0.983481 0.15409,0.786657 0.25506,1.588171 0.45841,2.362902 0.10031,0.197026 0.34782,0.261995 0.5038,0.367868 0.0166,0.455536 0.45274,0.737683 0.69919,1.077315 0.42662,0.454845 0.80443,0.97169 1.30782,1.345257 0.2587,0.22676 0.54901,0.03943 0.77825,-0.125125 1.66752,-1.020974 3.36001,-2.012692 5.01196,-3.051917 0.18508,-0.100796 0.0246,-0.518937 0.31157,-0.390201 0.38722,0.06187 0.48488,-0.421185 0.66987,-0.659752 0.66418,-1.192915 1.34413,-2.382857 1.90258,-3.62945 0.04,-0.279324 0.34079,-0.435442 0.49343,-0.660313 0.23317,0.186398 0.41279,0.509249 0.72867,0.554025 0.29047,-0.0242 0.30212,-0.366357 0.17175,-0.561519 -0.62139,-1.630966 -1.18384,-3.286385 -1.86373,-4.893978 -0.0663,-0.145318 -0.22054,-0.22527 -0.17892,-0.407977 -0.0663,-0.303514 0.062,-0.709874 -0.19124,-0.928826 -1.88761,-0.623082 -3.80289,-1.187277 -5.70111,-1.7878016 -0.24929,-0.056456 -0.55123,-0.2609586 -0.77531,-0.04094 -0.24129,-0.1880659 -0.41125,-0.5327117 -0.72043,-0.588848 -0.0377,0.00655 -0.0754,0.013101 -0.11313,0.019652 z m 1.11485,2.9232354 c 0.96773,-0.03606 1.91617,0.521777 2.34239,1.393602 0.2196,0.346424 0.2459,0.780984 0.46531,1.119128 0.75949,0.368769 1.57779,0.879061 1.81336,1.747088 0.27778,0.897976 -0.25041,1.793938 -0.79302,2.477068 -0.22071,0.312393 -0.56416,0.534031 -0.73269,0.877424 0.14075,0.569513 0.13264,1.195031 -0.15538,1.721191 -0.41666,0.739736 -1.1439,1.252409 -1.87177,1.658045 -0.20881,0.199926 -0.28338,0.0354 -0.33482,-0.179599 -0.0917,-0.18801 -0.19357,-0.387736 0.0926,-0.440238 0.25322,-0.302194 0.23887,-0.747236 0.37795,-1.110092 0.18437,-0.725853 0.40696,-1.447886 0.56741,-2.176129 -0.14128,-0.245604 -0.0225,-0.384287 0.16919,-0.577592 0.13457,-0.340406 0.28744,0.0033 0.4845,0.06661 0.32853,0.113284 0.396,-0.310248 0.35085,-0.548062 -0.0189,-0.65487 0.0378,-1.322091 -0.0284,-1.969244 -0.0544,-0.282974 -0.45584,-0.106876 -0.56599,-0.239946 -0.053,-0.380166 -0.51883,-0.453345 -0.77262,-0.676444 -1.06457,-0.662463 -2.11405,-1.360453 -3.18808,-2.000742 -0.19466,-0.0574 -0.37895,0.130064 -0.42208,-0.164283 -0.0224,-0.13382 -0.26185,-0.359062 -0.0955,-0.422154 0.72345,-0.2934 1.50078,-0.545372 2.29681,-0.555629 z"
                 style="fill:#ff8bbe;fill-opacity:1;stroke:#00000e;stroke-width:0.05061867;stroke-miterlimit:4;stroke-dasharray:none;stroke-opacity:0.09547741" />
              <path
                 sodipodi:nodetypes="cc"
                 inkscape:connector-curvature="0"
                 id="path838"
                 d="m 61.371765,260.952 c -0.11693,-1.06907 1.553503,-1.11919 1.553503,-1.11919"
                 style="fill:#ff8bbe;fill-opacity:1;stroke:#00000e;stroke-width:0.30000001;stroke-linecap:round;stroke-linejoin:miter;stroke-miterlimit:4;stroke-dasharray:none;stroke-opacity:1" />
              <path
                 sodipodi:nodetypes="ccc"
                 inkscape:connector-curvature="0"
                 id="path836"
                 d="m 60.653477,262.75607 c 0.01669,-1.90429 1.269531,-2.02122 1.269531,-2.02122 v 0"
                 style="fill:#ff8bbe;fill-opacity:1;stroke:#00000e;stroke-width:0.30000001;stroke-linecap:round;stroke-linejoin:miter;stroke-miterlimit:4;stroke-dasharray:none;stroke-opacity:1" />
              <path
                 inkscape:connector-curvature="0"
                 id="path844"
                 d="m 62.724818,260.31724 c 0.250563,-1.26953 1.77066,-0.91874 1.77066,-0.91874"
                 style="fill:#ff8bbe;fill-opacity:1;stroke:#00000e;stroke-width:0.30000001;stroke-linecap:round;stroke-linejoin:miter;stroke-miterlimit:4;stroke-dasharray:none;stroke-opacity:1" />
              <path
                 sodipodi:nodetypes="cc"
                 inkscape:connector-curvature="0"
                 id="path846"
                 d="m 61.137905,262.23824 c -1.620322,1.21941 0.567948,2.12145 0.567948,2.12145"
                 style="fill:#ff8bbe;fill-opacity:1;stroke:#00000e;stroke-width:0.30000001;stroke-linecap:round;stroke-linejoin:miter;stroke-miterlimit:4;stroke-dasharray:none;stroke-opacity:1" />
              <path
                 sodipodi:nodetypes="cc"
                 inkscape:connector-curvature="0"
                 id="path844-7"
                 d="m 64.01096,259.76646 c 1.290644,-1.27746 2.122188,0.50721 2.255086,0.70158"
                 style="fill:#ff8bbe;fill-opacity:1;stroke:#00000e;stroke-width:0.30000001;stroke-linecap:round;stroke-linejoin:miter;stroke-miterlimit:4;stroke-dasharray:none;stroke-opacity:1" />
              <path
                 sodipodi:nodetypes="cc"
                 inkscape:connector-curvature="0"
                 id="path844-3"
                 d="m 65.815029,260.46804 c 2.204971,-0.15033 0.634764,1.70385 0.634764,1.70385"
                 style="fill:#ff8bbe;fill-opacity:1;stroke:#00000e;stroke-width:0.30000001;stroke-linecap:round;stroke-linejoin:miter;stroke-miterlimit:4;stroke-dasharray:none;stroke-opacity:1" />
              <path
                 sodipodi:nodetypes="cc"
                 inkscape:connector-curvature="0"
                 id="path844-1"
                 d="m 61.522013,263.70869 c 0.08352,1.85418 2.505652,0.70158 2.505652,0.70158"
                 style="fill:#ff8bbe;fill-opacity:1;stroke:#00000e;stroke-width:0.30000001;stroke-linecap:round;stroke-linejoin:miter;stroke-miterlimit:4;stroke-dasharray:none;stroke-opacity:1" />
              <path
                 sodipodi:nodetypes="cc"
                 inkscape:connector-curvature="0"
                 id="path844-5"
                 d="m 66.082299,261.93803 c 1.653728,1.48669 -0.835218,1.5535 -0.835218,1.5535"
                 style="fill:#ff8bbe;fill-opacity:1;stroke:#00000e;stroke-width:0.30000001;stroke-linecap:round;stroke-linejoin:miter;stroke-miterlimit:4;stroke-dasharray:none;stroke-opacity:1" />
              <path
                 sodipodi:nodetypes="cc"
                 inkscape:connector-curvature="0"
                 id="path844-9"
                 d="m 63.693579,264.22652 c 1.403162,0.96885 1.73725,-1.05237 1.73725,-1.05237"
                 style="fill:#ff8bbe;fill-opacity:1;stroke:#00000e;stroke-width:0.30000001;stroke-linecap:round;stroke-linejoin:miter;stroke-miterlimit:4;stroke-dasharray:none;stroke-opacity:1" />
              <path
                 sodipodi:nodetypes="cc"
                 inkscape:connector-curvature="0"
                 id="path901"
                 d="m 62.774092,263.55788 c -1.670436,-0.45102 -0.901196,-1.62032 -0.901196,-1.62032"
                 style="fill:#ff8bbe;fill-opacity:1;stroke:#00000e;stroke-width:0.30000001;stroke-linecap:round;stroke-linejoin:miter;stroke-miterlimit:4;stroke-dasharray:none;stroke-opacity:1" />
              <path
                 sodipodi:nodetypes="cc"
                 inkscape:connector-curvature="0"
                 id="path844-34"
                 d="m 62.724725,262.72313 c -0.434315,-1.38646 0.952147,-1.36976 0.952147,-1.36976"
                 style="fill:#ff8bbe;fill-opacity:1;stroke:#00000e;stroke-width:0.30000001;stroke-linecap:round;stroke-linejoin:miter;stroke-miterlimit:4;stroke-dasharray:none;stroke-opacity:1" />
              <path
                 sodipodi:nodetypes="cc"
                 inkscape:connector-curvature="0"
                 id="path844-2"
                 d="m 63.225855,263.80891 c -1.403167,-0.50113 -0.250565,-1.36976 -0.250565,-1.36976"
                 style="fill:#ff8bbe;fill-opacity:1;stroke:#00000e;stroke-width:0.30000001;stroke-linecap:round;stroke-linejoin:miter;stroke-miterlimit:4;stroke-dasharray:none;stroke-opacity:1" />
              <path
                 sodipodi:nodetypes="cc"
                 inkscape:connector-curvature="0"
                 id="path893"
                 d="m 64.027665,264.41027 c -1.085781,-0.50113 -0.868536,-0.98603 -0.868536,-0.98603"
                 style="fill:#ff8bbe;fill-opacity:1;stroke:#00000e;stroke-width:0.30000001;stroke-linecap:round;stroke-linejoin:miter;stroke-miterlimit:4;stroke-dasharray:none;stroke-opacity:1" />
              <path
                 sodipodi:nodetypes="cc"
                 inkscape:connector-curvature="0"
                 id="path844-4"
                 d="m 64.862881,261.13621 c 1.102485,0.45102 0,1.26953 0,1.26953"
                 style="fill:#ff8bbe;fill-opacity:1;stroke:#00000e;stroke-width:0.30000001;stroke-linecap:round;stroke-linejoin:miter;stroke-miterlimit:4;stroke-dasharray:none;stroke-opacity:1" />
              <path
                 sodipodi:nodetypes="cc"
                 inkscape:connector-curvature="0"
                 id="path844-27"
                 d="m 63.543238,260.66849 c 1.453278,-0.68487 1.319643,0.83522 1.319643,0.83522"
                 style="fill:#ff8bbe;fill-opacity:1;stroke:#00000e;stroke-width:0.30000001;stroke-linecap:round;stroke-linejoin:miter;stroke-miterlimit:4;stroke-dasharray:none;stroke-opacity:1" />
              <path
                 sodipodi:nodetypes="cc"
                 inkscape:connector-curvature="0"
                 id="path844-70"
                 d="m 64.645725,262.10507 c 0.85192,0.71829 -0.317383,1.18601 -0.317383,1.18601"
                 style="fill:#ff8bbe;fill-opacity:1;stroke:#00000e;stroke-width:0.30000001;stroke-linecap:round;stroke-linejoin:miter;stroke-miterlimit:4;stroke-dasharray:none;stroke-opacity:1" />
            </g>
          </g>
        </g>
      </g>
    </g>
  </g>
</svg>
